<?xml version="1.0" encoding="UTF-8"?> <svg xmlns="http://www.w3.org/2000/svg" width="575.753" height="738.481" viewBox="0 0 575.753 738.481"><defs><style>.a{fill:none;stroke:#3f3d56;stroke-miterlimit:10;}.b{fill:#9d8785;}.c{fill:#aac6d4;}.d{fill:#2f2e41;}.e{opacity:0.1;}.f{fill:#fff;}</style></defs><g transform="translate(-302.645)"><path class="a" d="M762.278,39.083a25.541,25.541,0,0,0-22.016,15.393c-5.5,13.307,1.583,28.938,12.224,38.641s24.309,15.25,36.728,22.54c16.681,9.792,31.67,23.386,40.016,40.835s9.234,39.063-.577,55.733C819.547,227.7,802.989,236.958,787.2,245.5" transform="translate(-31.708 -30.795)"></path><ellipse class="b" cx="19.448" cy="9.446" rx="19.448" ry="9.446" transform="translate(725.146)"></ellipse><ellipse class="b" cx="19.448" cy="9.446" rx="19.448" ry="9.446" transform="translate(740.704 62.235)"></ellipse><ellipse class="b" cx="19.448" cy="9.446" rx="19.448" ry="9.446" transform="translate(705.142 72.237)"></ellipse><ellipse class="b" cx="19.448" cy="9.446" rx="19.448" ry="9.446" transform="translate(760.708 124.469)"></ellipse><ellipse class="b" cx="19.448" cy="9.446" rx="19.448" ry="9.446" transform="translate(799.605 124.469)"></ellipse><path class="a" d="M859.314,318.079a25.541,25.541,0,0,0-26.563,4.006c-10.845,9.474-11.442,26.627-6.222,40.048s15,24.464,22.885,36.514c10.591,16.185,17.978,35.023,17.7,54.364s-9.088,39.1-25.284,49.671c-15.033,9.814-33.981,10.751-51.923,11.385" transform="translate(-25.968 0.037)"></path><ellipse class="b" cx="9.446" cy="19.448" rx="9.446" ry="19.448" transform="translate(823.769 325.206) rotate(-63.616)"></ellipse><ellipse class="b" cx="9.446" cy="19.448" rx="9.446" ry="19.448" transform="translate(810.05 387.871) rotate(-63.616)"></ellipse><ellipse class="b" cx="9.446" cy="19.448" rx="9.446" ry="19.448" transform="translate(773.747 381.028) rotate(-63.616)"></ellipse><ellipse class="b" cx="9.446" cy="19.448" rx="9.446" ry="19.448" transform="translate(800.314 452.513) rotate(-63.616)"></ellipse><ellipse class="b" cx="9.446" cy="19.448" rx="9.446" ry="19.448" transform="translate(835.158 469.797) rotate(-63.616)"></ellipse><path class="a" d="M400.5,398.779a25.541,25.541,0,0,1,26.164-6.088c13.577,4.8,20.467,20.518,20.573,34.919s-4.9,28.274-7.781,42.385c-3.865,18.952-3.771,39.187,3.63,57.057s22.885,32.977,41.842,36.821c17.6,3.568,35.549-2.559,52.457-8.6" transform="translate(-69.322 8.424)"></path><ellipse class="b" cx="19.448" cy="9.446" rx="19.448" ry="9.446" transform="translate(302.645 426.564) rotate(-48.059)"></ellipse><ellipse class="b" cx="19.448" cy="9.446" rx="19.448" ry="9.446" transform="translate(338.54 479.731) rotate(-48.059)"></ellipse><ellipse class="b" cx="19.448" cy="9.446" rx="19.448" ry="9.446" transform="translate(369.749 459.963) rotate(-48.059)"></ellipse><ellipse class="b" cx="19.448" cy="9.446" rx="19.448" ry="9.446" transform="translate(371.463 536.207) rotate(-48.059)"></ellipse><ellipse class="b" cx="19.448" cy="9.446" rx="19.448" ry="9.446" transform="translate(345.467 565.14) rotate(-48.059)"></ellipse><path class="c" d="M839.5,284.641l-3.056,22.416L817.556,445.373l-30.94,226.512L778.87,728.6a18.065,18.065,0,0,1-17.9,15.625H554.648a18.07,18.07,0,0,1-17.9-15.581l-7.879-56.756L497.4,445.373,478.177,306.957l-3.09-22.271a18.065,18.065,0,0,1,17.892-20.56H821.6a18.077,18.077,0,0,1,17.9,20.515Z" transform="translate(-61.037 -5.741)"></path><rect class="d" width="322.287" height="60.012" rx="16.26" transform="translate(435.644 198.373)"></rect><path class="e" d="M816.786,235.646v13.581a18.07,18.07,0,0,1-18.07,18.07H512.57a18.07,18.07,0,0,1-18.07-18.07V235.679a1697,1697,0,0,0,322.287-.033Z" transform="translate(-58.857 -8.911)"></path><circle class="d" cx="48.899" cy="48.899" r="48.899" transform="translate(461.76 332.289)"></circle><circle class="d" cx="48.899" cy="48.899" r="48.899" transform="translate(635.128 332.289)"></circle><circle class="f" cx="13.336" cy="13.336" r="13.336" transform="translate(495.1 367.851)"></circle><circle class="f" cx="5.557" cy="5.557" r="5.557" transform="translate(522.883 350.07)"></circle><circle class="f" cx="13.336" cy="13.336" r="13.336" transform="translate(670.69 367.851)"></circle><circle class="f" cx="5.557" cy="5.557" r="5.557" transform="translate(698.474 350.07)"></circle><path class="e" d="M838.476,275.8h0c-.005-.014-.012-.027-.017-.04a18.067,18.067,0,0,0-1.824-3.541l0,0c-.218-.327-.448-.644-.687-.956-.08-.1-.161-.207-.243-.309a18.194,18.194,0,0,0-2.3-2.4c-.187-.163-.376-.324-.57-.479-.218-.174-.437-.345-.663-.509-.283-.205-.574-.4-.869-.588-.233-.149-.466-.295-.706-.433q-.556-.321-1.135-.6c-.185-.089-.372-.172-.559-.256q-.554-.246-1.128-.454c-.154-.056-.305-.118-.461-.17q-.794-.265-1.621-.457c-.135-.031-.273-.053-.409-.082q-.676-.14-1.371-.229c-.168-.021-.334-.043-.5-.06-.593-.059-1.193-.1-1.8-.1H492.979a18.119,18.119,0,0,0-17.894,20.555l.522,3.758,2.569,18.518h0L497.4,445.373h0l25.236,181.692,14.107,101.573a18.069,18.069,0,0,0,17.9,15.583h9.791a18.052,18.052,0,0,1-1.017-3.914l-9.5-68.422h232.7l30.94-226.512h-295.1l-18.917-136.2a1909.7,1909.7,0,0,0,332.91-2.115l3.056-22.415A17.933,17.933,0,0,0,838.476,275.8Z" transform="translate(-61.037 -5.741)"></path><path class="d" d="M869.632,297.138a1912.6,1912.6,0,0,1-415.063,0A18.069,18.069,0,0,1,436.5,279.069V255.2a18.069,18.069,0,0,1,18.069-18.069,1700.616,1700.616,0,0,0,415.063,0A18.069,18.069,0,0,1,887.7,255.2v23.874A18.069,18.069,0,0,1,869.632,297.138Z" transform="translate(-65.314 -8.747)"></path><path class="c" d="M756.482,503.318a7.4,7.4,0,0,1,4.06,12.358c-17.627,18.789-60.366,57.966-110.291,57.966s-92.664-39.177-110.291-57.966a7.4,7.4,0,0,1,4.06-12.358,587.036,587.036,0,0,1,212.462,0Z" transform="translate(-54.02 19.81)"></path><path class="f" d="M700.756,513.349a7.4,7.4,0,0,1,4.024,12.593c-11.937,11.639-34.154,29.188-59.589,29.188s-47.652-17.55-59.589-29.188a7.4,7.4,0,0,1,4.024-12.593,339.129,339.129,0,0,1,111.129,0Z" transform="translate(-48.961 21.496)"></path></g></svg> 